<mxfile host="app.diagrams.net" modified="2024-02-10T15:30:20.897Z" agent="Mozilla/5.0 (Windows NT 10.0; Win64; x64) AppleWebKit/537.36 (KHTML, like Gecko) Chrome/121.0.0.0 Safari/537.36" etag="xAc4QQ0oFlG_y5Za-owJ" version="23.1.2" type="github">
  <diagram id="6a731a19-8d31-9384-78a2-239565b7b9f0" name="Page-1">
    <mxGraphModel dx="2440" dy="1292" grid="1" gridSize="10" guides="1" tooltips="1" connect="1" arrows="1" fold="1" page="1" pageScale="1" pageWidth="1169" pageHeight="827" background="none" math="0" shadow="0">
      <root>
        <mxCell id="0" />
        <mxCell id="1" parent="0" />
        <mxCell id="vm-wcpPuKyVr0mwxiMD0-1781" value="" style="edgeStyle=orthogonalEdgeStyle;rounded=0;orthogonalLoop=1;jettySize=auto;html=1;" edge="1" parent="1" source="1749" target="vm-wcpPuKyVr0mwxiMD0-1779">
          <mxGeometry relative="1" as="geometry">
            <Array as="points">
              <mxPoint x="500" y="270" />
              <mxPoint x="500" y="270" />
            </Array>
          </mxGeometry>
        </mxCell>
        <mxCell id="1749" value="키워드로 github 검색" style="rounded=1;whiteSpace=wrap;html=1;shadow=0;labelBackgroundColor=none;strokeColor=none;strokeWidth=3;fillColor=#2F5B7C;fontFamily=Helvetica;fontSize=16;fontColor=#FFFFFF;align=center;fontStyle=1;spacing=5;arcSize=7;perimeterSpacing=2;" parent="1" vertex="1">
          <mxGeometry x="400" y="160" width="200" height="40" as="geometry" />
        </mxCell>
        <mxCell id="1760" value="라이센스" style="rounded=1;whiteSpace=wrap;html=1;shadow=0;labelBackgroundColor=none;strokeColor=none;strokeWidth=3;fillColor=#1699d3;fontFamily=Helvetica;fontSize=14;fontColor=#FFFFFF;align=center;spacing=5;fontStyle=1;arcSize=7;perimeterSpacing=2;" parent="1" vertex="1">
          <mxGeometry x="640" y="280" width="120" height="40" as="geometry" />
        </mxCell>
        <mxCell id="1761" value="future work" style="rounded=1;whiteSpace=wrap;html=1;shadow=0;labelBackgroundColor=none;strokeColor=none;strokeWidth=3;fillColor=#64bbe2;fontFamily=Helvetica;fontSize=14;fontColor=#FFFFFF;align=center;spacing=5;arcSize=7;perimeterSpacing=2;" parent="1" vertex="1">
          <mxGeometry x="920" y="960" width="120" height="40" as="geometry" />
        </mxCell>
        <mxCell id="vm-wcpPuKyVr0mwxiMD0-1804" style="edgeStyle=orthogonalEdgeStyle;rounded=0;orthogonalLoop=1;jettySize=auto;html=1;exitX=1;exitY=0.5;exitDx=0;exitDy=0;entryX=0;entryY=0.5;entryDx=0;entryDy=0;" edge="1" parent="1" source="vm-wcpPuKyVr0mwxiMD0-1779" target="1760">
          <mxGeometry relative="1" as="geometry" />
        </mxCell>
        <mxCell id="vm-wcpPuKyVr0mwxiMD0-1812" style="edgeStyle=orthogonalEdgeStyle;rounded=0;orthogonalLoop=1;jettySize=auto;html=1;exitX=0.5;exitY=1;exitDx=0;exitDy=0;entryX=0.5;entryY=0;entryDx=0;entryDy=0;" edge="1" parent="1" source="vm-wcpPuKyVr0mwxiMD0-1779" target="vm-wcpPuKyVr0mwxiMD0-1792">
          <mxGeometry relative="1" as="geometry" />
        </mxCell>
        <mxCell id="vm-wcpPuKyVr0mwxiMD0-1779" value="연구 결정" style="rounded=1;whiteSpace=wrap;html=1;shadow=0;labelBackgroundColor=none;strokeColor=none;strokeWidth=3;fillColor=#2F5B7C;fontFamily=Helvetica;fontSize=16;fontColor=#FFFFFF;align=center;fontStyle=1;spacing=5;arcSize=7;perimeterSpacing=2;" vertex="1" parent="1">
          <mxGeometry x="440" y="280" width="120" height="40" as="geometry" />
        </mxCell>
        <mxCell id="vm-wcpPuKyVr0mwxiMD0-1782" value="Platform" style="rounded=1;whiteSpace=wrap;html=1;shadow=0;labelBackgroundColor=none;strokeColor=none;strokeWidth=3;fillColor=#1699d3;fontFamily=Helvetica;fontSize=14;fontColor=#FFFFFF;align=center;spacing=5;fontStyle=1;arcSize=7;perimeterSpacing=2;" vertex="1" parent="1">
          <mxGeometry x="640" y="360" width="160" height="40" as="geometry" />
        </mxCell>
        <mxCell id="vm-wcpPuKyVr0mwxiMD0-1783" value="정말 원하는 기능을 구현 하는지" style="rounded=1;whiteSpace=wrap;html=1;shadow=0;labelBackgroundColor=none;strokeColor=none;strokeWidth=3;fillColor=#1699d3;fontFamily=Helvetica;fontSize=14;fontColor=#FFFFFF;align=center;spacing=5;fontStyle=1;arcSize=7;perimeterSpacing=2;" vertex="1" parent="1">
          <mxGeometry x="640" y="440" width="240" height="40" as="geometry" />
        </mxCell>
        <mxCell id="vm-wcpPuKyVr0mwxiMD0-1785" value="언젠가 활용 가능한 기술인지" style="rounded=1;whiteSpace=wrap;html=1;shadow=0;labelBackgroundColor=none;strokeColor=none;strokeWidth=3;fillColor=#1699d3;fontFamily=Helvetica;fontSize=14;fontColor=#FFFFFF;align=center;spacing=5;fontStyle=1;arcSize=7;perimeterSpacing=2;" vertex="1" parent="1">
          <mxGeometry x="640" y="520" width="240" height="40" as="geometry" />
        </mxCell>
        <mxCell id="vm-wcpPuKyVr0mwxiMD0-1824" style="edgeStyle=orthogonalEdgeStyle;rounded=0;orthogonalLoop=1;jettySize=auto;html=1;exitX=1;exitY=0.5;exitDx=0;exitDy=0;entryX=0;entryY=0.5;entryDx=0;entryDy=0;" edge="1" parent="1" source="vm-wcpPuKyVr0mwxiMD0-1786" target="vm-wcpPuKyVr0mwxiMD0-1787">
          <mxGeometry relative="1" as="geometry" />
        </mxCell>
        <mxCell id="vm-wcpPuKyVr0mwxiMD0-1786" value="논문 정독" style="rounded=1;whiteSpace=wrap;html=1;shadow=0;labelBackgroundColor=none;strokeColor=#6c8ebf;strokeWidth=3;fillColor=#dae8fc;fontFamily=Helvetica;fontSize=16;align=center;fontStyle=1;spacing=5;arcSize=7;perimeterSpacing=2;" vertex="1" parent="1">
          <mxGeometry x="560" y="800" width="160" height="40" as="geometry" />
        </mxCell>
        <mxCell id="vm-wcpPuKyVr0mwxiMD0-1787" value="기반 지식" style="rounded=1;whiteSpace=wrap;html=1;shadow=0;labelBackgroundColor=none;strokeColor=none;strokeWidth=3;fillColor=#1699d3;fontFamily=Helvetica;fontSize=14;fontColor=#FFFFFF;align=center;spacing=5;fontStyle=1;arcSize=7;perimeterSpacing=2;" vertex="1" parent="1">
          <mxGeometry x="760" y="800" width="120" height="40" as="geometry" />
        </mxCell>
        <mxCell id="vm-wcpPuKyVr0mwxiMD0-1788" value="관련 기술 파악" style="rounded=1;whiteSpace=wrap;html=1;shadow=0;labelBackgroundColor=none;strokeColor=none;strokeWidth=3;fillColor=#1699d3;fontFamily=Helvetica;fontSize=14;fontColor=#FFFFFF;align=center;spacing=5;fontStyle=1;arcSize=7;perimeterSpacing=2;" vertex="1" parent="1">
          <mxGeometry x="760" y="880" width="120" height="40" as="geometry" />
        </mxCell>
        <mxCell id="vm-wcpPuKyVr0mwxiMD0-1841" style="edgeStyle=orthogonalEdgeStyle;rounded=0;orthogonalLoop=1;jettySize=auto;html=1;exitX=1;exitY=0.5;exitDx=0;exitDy=0;entryX=1;entryY=0.5;entryDx=0;entryDy=0;" edge="1" parent="1" source="vm-wcpPuKyVr0mwxiMD0-1789" target="1749">
          <mxGeometry relative="1" as="geometry">
            <mxPoint x="970" y="170" as="targetPoint" />
            <Array as="points">
              <mxPoint x="890" y="980" />
              <mxPoint x="890" y="180" />
            </Array>
          </mxGeometry>
        </mxCell>
        <mxCell id="vm-wcpPuKyVr0mwxiMD0-1789" value="후속 연구 파악" style="rounded=1;whiteSpace=wrap;html=1;shadow=0;labelBackgroundColor=none;strokeColor=none;strokeWidth=3;fillColor=#1699d3;fontFamily=Helvetica;fontSize=14;fontColor=#FFFFFF;align=center;spacing=5;fontStyle=1;arcSize=7;perimeterSpacing=2;" vertex="1" parent="1">
          <mxGeometry x="760" y="960" width="120" height="40" as="geometry" />
        </mxCell>
        <mxCell id="vm-wcpPuKyVr0mwxiMD0-1790" value="논문 대표 키워드" style="rounded=1;whiteSpace=wrap;html=1;shadow=0;labelBackgroundColor=none;strokeColor=none;strokeWidth=3;fillColor=#64bbe2;fontFamily=Helvetica;fontSize=14;fontColor=#FFFFFF;align=center;spacing=5;arcSize=7;perimeterSpacing=2;" vertex="1" parent="1">
          <mxGeometry x="920" y="1040" width="120" height="40" as="geometry" />
        </mxCell>
        <mxCell id="vm-wcpPuKyVr0mwxiMD0-1791" value="논문 저자" style="rounded=1;whiteSpace=wrap;html=1;shadow=0;labelBackgroundColor=none;strokeColor=none;strokeWidth=3;fillColor=#64bbe2;fontFamily=Helvetica;fontSize=14;fontColor=#FFFFFF;align=center;spacing=5;arcSize=7;perimeterSpacing=2;" vertex="1" parent="1">
          <mxGeometry x="920" y="1120" width="120" height="40" as="geometry" />
        </mxCell>
        <mxCell id="vm-wcpPuKyVr0mwxiMD0-1815" style="edgeStyle=orthogonalEdgeStyle;rounded=0;orthogonalLoop=1;jettySize=auto;html=1;exitX=0;exitY=0.5;exitDx=0;exitDy=0;entryX=0.5;entryY=1;entryDx=0;entryDy=0;" edge="1" parent="1">
          <mxGeometry relative="1" as="geometry">
            <mxPoint x="720" y="400" as="targetPoint" />
            <mxPoint x="318" y="658" as="sourcePoint" />
            <Array as="points">
              <mxPoint x="280" y="658" />
              <mxPoint x="280" y="428" />
              <mxPoint x="720" y="428" />
            </Array>
          </mxGeometry>
        </mxCell>
        <mxCell id="vm-wcpPuKyVr0mwxiMD0-1817" style="edgeStyle=orthogonalEdgeStyle;rounded=0;orthogonalLoop=1;jettySize=auto;html=1;exitX=0.5;exitY=1;exitDx=0;exitDy=0;entryX=0.5;entryY=0;entryDx=0;entryDy=0;" edge="1" parent="1" source="vm-wcpPuKyVr0mwxiMD0-1792" target="vm-wcpPuKyVr0mwxiMD0-1793">
          <mxGeometry relative="1" as="geometry" />
        </mxCell>
        <mxCell id="vm-wcpPuKyVr0mwxiMD0-1792" value="환경 설정 및 빌드" style="rounded=1;whiteSpace=wrap;html=1;shadow=0;labelBackgroundColor=none;strokeColor=none;strokeWidth=3;fillColor=#2F5B7C;fontFamily=Helvetica;fontSize=16;fontColor=#FFFFFF;align=center;fontStyle=1;spacing=5;arcSize=7;perimeterSpacing=2;" vertex="1" parent="1">
          <mxGeometry x="320" y="640" width="160" height="40" as="geometry" />
        </mxCell>
        <mxCell id="vm-wcpPuKyVr0mwxiMD0-1818" style="edgeStyle=orthogonalEdgeStyle;rounded=0;orthogonalLoop=1;jettySize=auto;html=1;exitX=0.5;exitY=1;exitDx=0;exitDy=0;" edge="1" parent="1" source="vm-wcpPuKyVr0mwxiMD0-1793" target="vm-wcpPuKyVr0mwxiMD0-1794">
          <mxGeometry relative="1" as="geometry" />
        </mxCell>
        <mxCell id="vm-wcpPuKyVr0mwxiMD0-1820" style="edgeStyle=orthogonalEdgeStyle;rounded=0;orthogonalLoop=1;jettySize=auto;html=1;exitX=1;exitY=0.5;exitDx=0;exitDy=0;endArrow=none;endFill=0;" edge="1" parent="1" source="vm-wcpPuKyVr0mwxiMD0-1793">
          <mxGeometry relative="1" as="geometry">
            <mxPoint x="760" y="480" as="targetPoint" />
            <Array as="points">
              <mxPoint x="500" y="740" />
              <mxPoint x="500" y="700" />
              <mxPoint x="990" y="700" />
              <mxPoint x="990" y="500" />
              <mxPoint x="760" y="500" />
            </Array>
          </mxGeometry>
        </mxCell>
        <mxCell id="vm-wcpPuKyVr0mwxiMD0-1793" value="테스트" style="rounded=1;whiteSpace=wrap;html=1;shadow=0;labelBackgroundColor=none;strokeColor=none;strokeWidth=3;fillColor=#2F5B7C;fontFamily=Helvetica;fontSize=16;fontColor=#FFFFFF;align=center;fontStyle=1;spacing=5;arcSize=7;perimeterSpacing=2;" vertex="1" parent="1">
          <mxGeometry x="360" y="720" width="80" height="40" as="geometry" />
        </mxCell>
        <mxCell id="vm-wcpPuKyVr0mwxiMD0-1819" style="edgeStyle=orthogonalEdgeStyle;rounded=0;orthogonalLoop=1;jettySize=auto;html=1;exitX=0.5;exitY=1;exitDx=0;exitDy=0;entryX=0.5;entryY=0;entryDx=0;entryDy=0;" edge="1" parent="1" source="vm-wcpPuKyVr0mwxiMD0-1794" target="vm-wcpPuKyVr0mwxiMD0-1795">
          <mxGeometry relative="1" as="geometry" />
        </mxCell>
        <mxCell id="vm-wcpPuKyVr0mwxiMD0-1831" style="edgeStyle=orthogonalEdgeStyle;rounded=0;orthogonalLoop=1;jettySize=auto;html=1;exitX=0.5;exitY=1;exitDx=0;exitDy=0;entryX=0.5;entryY=0;entryDx=0;entryDy=0;" edge="1" parent="1" source="vm-wcpPuKyVr0mwxiMD0-1794" target="vm-wcpPuKyVr0mwxiMD0-1796">
          <mxGeometry relative="1" as="geometry">
            <Array as="points">
              <mxPoint x="400" y="860" />
              <mxPoint x="640" y="860" />
            </Array>
          </mxGeometry>
        </mxCell>
        <mxCell id="vm-wcpPuKyVr0mwxiMD0-1794" value="코드 리딩" style="rounded=1;whiteSpace=wrap;html=1;shadow=0;labelBackgroundColor=none;strokeColor=none;strokeWidth=3;fillColor=#2F5B7C;fontFamily=Helvetica;fontSize=16;fontColor=#FFFFFF;align=center;fontStyle=1;spacing=5;arcSize=7;perimeterSpacing=2;" vertex="1" parent="1">
          <mxGeometry x="320" y="800" width="160" height="40" as="geometry" />
        </mxCell>
        <mxCell id="vm-wcpPuKyVr0mwxiMD0-1795" value="리펙토링" style="rounded=1;whiteSpace=wrap;html=1;shadow=0;labelBackgroundColor=none;strokeColor=#6c8ebf;strokeWidth=3;fillColor=#dae8fc;fontFamily=Helvetica;fontSize=16;align=center;fontStyle=1;spacing=5;arcSize=7;perimeterSpacing=2;" vertex="1" parent="1">
          <mxGeometry x="320" y="1320" width="160" height="40" as="geometry" />
        </mxCell>
        <mxCell id="vm-wcpPuKyVr0mwxiMD0-1833" style="edgeStyle=orthogonalEdgeStyle;rounded=0;orthogonalLoop=1;jettySize=auto;html=1;exitX=0.5;exitY=1;exitDx=0;exitDy=0;" edge="1" parent="1" source="vm-wcpPuKyVr0mwxiMD0-1796">
          <mxGeometry relative="1" as="geometry">
            <mxPoint x="640" y="1200" as="targetPoint" />
          </mxGeometry>
        </mxCell>
        <mxCell id="vm-wcpPuKyVr0mwxiMD0-1796" value="개발 스펙 결정" style="rounded=1;whiteSpace=wrap;html=1;shadow=0;labelBackgroundColor=none;strokeColor=none;strokeWidth=3;fillColor=#2F5B7C;fontFamily=Helvetica;fontSize=16;fontColor=#FFFFFF;align=center;fontStyle=1;spacing=5;arcSize=7;perimeterSpacing=2;" vertex="1" parent="1">
          <mxGeometry x="560" y="1120" width="160" height="40" as="geometry" />
        </mxCell>
        <mxCell id="vm-wcpPuKyVr0mwxiMD0-1834" style="edgeStyle=orthogonalEdgeStyle;rounded=0;orthogonalLoop=1;jettySize=auto;html=1;exitX=0.5;exitY=1;exitDx=0;exitDy=0;" edge="1" parent="1" source="vm-wcpPuKyVr0mwxiMD0-1797" target="vm-wcpPuKyVr0mwxiMD0-1802">
          <mxGeometry relative="1" as="geometry" />
        </mxCell>
        <mxCell id="vm-wcpPuKyVr0mwxiMD0-1845" style="edgeStyle=orthogonalEdgeStyle;rounded=0;orthogonalLoop=1;jettySize=auto;html=1;exitX=0.5;exitY=1;exitDx=0;exitDy=0;entryX=0.75;entryY=0;entryDx=0;entryDy=0;" edge="1" parent="1" source="vm-wcpPuKyVr0mwxiMD0-1797" target="vm-wcpPuKyVr0mwxiMD0-1795">
          <mxGeometry relative="1" as="geometry">
            <Array as="points">
              <mxPoint x="640" y="1280" />
              <mxPoint x="441" y="1280" />
            </Array>
          </mxGeometry>
        </mxCell>
        <mxCell id="vm-wcpPuKyVr0mwxiMD0-1797" value="기능 구현" style="rounded=1;whiteSpace=wrap;html=1;shadow=0;labelBackgroundColor=none;strokeColor=none;strokeWidth=3;fillColor=#2F5B7C;fontFamily=Helvetica;fontSize=16;fontColor=#FFFFFF;align=center;fontStyle=1;spacing=5;arcSize=7;perimeterSpacing=2;" vertex="1" parent="1">
          <mxGeometry x="560" y="1201" width="160" height="40" as="geometry" />
        </mxCell>
        <mxCell id="vm-wcpPuKyVr0mwxiMD0-1798" value="IO" style="rounded=1;whiteSpace=wrap;html=1;shadow=0;labelBackgroundColor=none;strokeColor=none;strokeWidth=3;fillColor=#1699d3;fontFamily=Helvetica;fontSize=14;fontColor=#FFFFFF;align=center;spacing=5;fontStyle=1;arcSize=7;perimeterSpacing=2;" vertex="1" parent="1">
          <mxGeometry x="760" y="1201" width="120" height="40" as="geometry" />
        </mxCell>
        <mxCell id="vm-wcpPuKyVr0mwxiMD0-1799" value="최적화" style="rounded=1;whiteSpace=wrap;html=1;shadow=0;labelBackgroundColor=none;strokeColor=none;strokeWidth=3;fillColor=#1699d3;fontFamily=Helvetica;fontSize=14;fontColor=#FFFFFF;align=center;spacing=5;fontStyle=1;arcSize=7;perimeterSpacing=2;" vertex="1" parent="1">
          <mxGeometry x="760" y="1280" width="120" height="40" as="geometry" />
        </mxCell>
        <mxCell id="vm-wcpPuKyVr0mwxiMD0-1800" value="버그 수정" style="rounded=1;whiteSpace=wrap;html=1;shadow=0;labelBackgroundColor=none;strokeColor=none;strokeWidth=3;fillColor=#1699d3;fontFamily=Helvetica;fontSize=14;fontColor=#FFFFFF;align=center;spacing=5;fontStyle=1;arcSize=7;perimeterSpacing=2;" vertex="1" parent="1">
          <mxGeometry x="760" y="1360" width="120" height="40" as="geometry" />
        </mxCell>
        <mxCell id="vm-wcpPuKyVr0mwxiMD0-1801" value="멀티 플랫폼" style="rounded=1;whiteSpace=wrap;html=1;shadow=0;labelBackgroundColor=none;strokeColor=none;strokeWidth=3;fillColor=#1699d3;fontFamily=Helvetica;fontSize=14;fontColor=#FFFFFF;align=center;spacing=5;fontStyle=1;arcSize=7;perimeterSpacing=2;" vertex="1" parent="1">
          <mxGeometry x="760" y="1440" width="120" height="40" as="geometry" />
        </mxCell>
        <mxCell id="vm-wcpPuKyVr0mwxiMD0-1802" value="테스트" style="rounded=1;whiteSpace=wrap;html=1;shadow=0;labelBackgroundColor=none;strokeColor=none;strokeWidth=3;fillColor=#2F5B7C;fontFamily=Helvetica;fontSize=16;fontColor=#FFFFFF;align=center;fontStyle=1;spacing=5;arcSize=7;perimeterSpacing=2;" vertex="1" parent="1">
          <mxGeometry x="560" y="1520" width="160" height="40" as="geometry" />
        </mxCell>
        <mxCell id="vm-wcpPuKyVr0mwxiMD0-1806" style="edgeStyle=orthogonalEdgeStyle;rounded=0;orthogonalLoop=1;jettySize=auto;html=1;exitX=1;exitY=0.5;exitDx=0;exitDy=0;entryX=0.005;entryY=0.607;entryDx=0;entryDy=0;entryPerimeter=0;" edge="1" parent="1" source="vm-wcpPuKyVr0mwxiMD0-1779" target="vm-wcpPuKyVr0mwxiMD0-1782">
          <mxGeometry relative="1" as="geometry">
            <Array as="points">
              <mxPoint x="600" y="300" />
              <mxPoint x="600" y="385" />
            </Array>
          </mxGeometry>
        </mxCell>
        <mxCell id="vm-wcpPuKyVr0mwxiMD0-1814" style="edgeStyle=orthogonalEdgeStyle;rounded=0;orthogonalLoop=1;jettySize=auto;html=1;exitX=1;exitY=0.5;exitDx=0;exitDy=0;entryX=0.5;entryY=1;entryDx=0;entryDy=0;" edge="1" parent="1" source="vm-wcpPuKyVr0mwxiMD0-1808" target="vm-wcpPuKyVr0mwxiMD0-1783">
          <mxGeometry relative="1" as="geometry">
            <mxPoint x="970" y="660" as="targetPoint" />
            <Array as="points">
              <mxPoint x="990" y="660" />
              <mxPoint x="990" y="500" />
              <mxPoint x="760" y="500" />
            </Array>
          </mxGeometry>
        </mxCell>
        <mxCell id="vm-wcpPuKyVr0mwxiMD0-1823" style="edgeStyle=orthogonalEdgeStyle;rounded=0;orthogonalLoop=1;jettySize=auto;html=1;exitX=0.5;exitY=1;exitDx=0;exitDy=0;entryX=0.5;entryY=0;entryDx=0;entryDy=0;" edge="1" parent="1" source="vm-wcpPuKyVr0mwxiMD0-1808" target="vm-wcpPuKyVr0mwxiMD0-1786">
          <mxGeometry relative="1" as="geometry" />
        </mxCell>
        <mxCell id="vm-wcpPuKyVr0mwxiMD0-1832" style="edgeStyle=orthogonalEdgeStyle;rounded=0;orthogonalLoop=1;jettySize=auto;html=1;exitX=0.5;exitY=1;exitDx=0;exitDy=0;entryX=1;entryY=0.5;entryDx=0;entryDy=0;" edge="1" parent="1" source="vm-wcpPuKyVr0mwxiMD0-1808" target="vm-wcpPuKyVr0mwxiMD0-1794">
          <mxGeometry relative="1" as="geometry">
            <Array as="points">
              <mxPoint x="640" y="760" />
              <mxPoint x="520" y="760" />
              <mxPoint x="520" y="820" />
            </Array>
          </mxGeometry>
        </mxCell>
        <mxCell id="vm-wcpPuKyVr0mwxiMD0-1808" value="논문 흐름 파악" style="rounded=1;whiteSpace=wrap;html=1;shadow=0;labelBackgroundColor=none;strokeColor=none;strokeWidth=3;fillColor=#2F5B7C;fontFamily=Helvetica;fontSize=16;fontColor=#FFFFFF;align=center;fontStyle=1;spacing=5;arcSize=7;perimeterSpacing=2;" vertex="1" parent="1">
          <mxGeometry x="560" y="640" width="160" height="40" as="geometry" />
        </mxCell>
        <mxCell id="vm-wcpPuKyVr0mwxiMD0-1810" style="edgeStyle=orthogonalEdgeStyle;rounded=0;orthogonalLoop=1;jettySize=auto;html=1;exitX=1;exitY=0.5;exitDx=0;exitDy=0;entryX=0;entryY=0.5;entryDx=0;entryDy=0;" edge="1" parent="1" source="vm-wcpPuKyVr0mwxiMD0-1779" target="vm-wcpPuKyVr0mwxiMD0-1783">
          <mxGeometry relative="1" as="geometry">
            <mxPoint x="572" y="310" as="sourcePoint" />
            <mxPoint x="649" y="395" as="targetPoint" />
            <Array as="points">
              <mxPoint x="600" y="300" />
              <mxPoint x="600" y="460" />
            </Array>
          </mxGeometry>
        </mxCell>
        <mxCell id="vm-wcpPuKyVr0mwxiMD0-1811" style="edgeStyle=orthogonalEdgeStyle;rounded=0;orthogonalLoop=1;jettySize=auto;html=1;entryX=0;entryY=0.5;entryDx=0;entryDy=0;" edge="1" parent="1">
          <mxGeometry relative="1" as="geometry">
            <mxPoint x="560" y="300" as="sourcePoint" />
            <mxPoint x="640" y="540" as="targetPoint" />
            <Array as="points">
              <mxPoint x="600" y="300" />
              <mxPoint x="600" y="540" />
            </Array>
          </mxGeometry>
        </mxCell>
        <mxCell id="vm-wcpPuKyVr0mwxiMD0-1813" style="edgeStyle=orthogonalEdgeStyle;rounded=0;orthogonalLoop=1;jettySize=auto;html=1;entryX=0.5;entryY=0;entryDx=0;entryDy=0;exitX=0.5;exitY=1;exitDx=0;exitDy=0;" edge="1" parent="1" source="vm-wcpPuKyVr0mwxiMD0-1779" target="vm-wcpPuKyVr0mwxiMD0-1808">
          <mxGeometry relative="1" as="geometry">
            <mxPoint x="510" y="330" as="sourcePoint" />
            <mxPoint x="410" y="648" as="targetPoint" />
            <Array as="points">
              <mxPoint x="500" y="600" />
              <mxPoint x="640" y="600" />
            </Array>
          </mxGeometry>
        </mxCell>
        <mxCell id="vm-wcpPuKyVr0mwxiMD0-1825" style="edgeStyle=orthogonalEdgeStyle;rounded=0;orthogonalLoop=1;jettySize=auto;html=1;exitX=1;exitY=0.5;exitDx=0;exitDy=0;entryX=0;entryY=0.5;entryDx=0;entryDy=0;" edge="1" parent="1" source="vm-wcpPuKyVr0mwxiMD0-1786" target="vm-wcpPuKyVr0mwxiMD0-1788">
          <mxGeometry relative="1" as="geometry">
            <mxPoint x="732" y="830" as="sourcePoint" />
            <mxPoint x="768" y="830" as="targetPoint" />
            <Array as="points">
              <mxPoint x="740" y="820" />
              <mxPoint x="740" y="900" />
            </Array>
          </mxGeometry>
        </mxCell>
        <mxCell id="vm-wcpPuKyVr0mwxiMD0-1826" style="edgeStyle=orthogonalEdgeStyle;rounded=0;orthogonalLoop=1;jettySize=auto;html=1;exitX=1;exitY=0.5;exitDx=0;exitDy=0;entryX=0;entryY=0.5;entryDx=0;entryDy=0;" edge="1" parent="1" source="vm-wcpPuKyVr0mwxiMD0-1786" target="vm-wcpPuKyVr0mwxiMD0-1789">
          <mxGeometry relative="1" as="geometry">
            <mxPoint x="732" y="830" as="sourcePoint" />
            <mxPoint x="768" y="910" as="targetPoint" />
            <Array as="points">
              <mxPoint x="740" y="820" />
              <mxPoint x="740" y="980" />
            </Array>
          </mxGeometry>
        </mxCell>
        <mxCell id="vm-wcpPuKyVr0mwxiMD0-1827" style="edgeStyle=orthogonalEdgeStyle;rounded=0;orthogonalLoop=1;jettySize=auto;html=1;exitX=1;exitY=0.5;exitDx=0;exitDy=0;entryX=0;entryY=0.5;entryDx=0;entryDy=0;" edge="1" parent="1" target="1761">
          <mxGeometry relative="1" as="geometry">
            <mxPoint x="880" y="980" as="sourcePoint" />
            <mxPoint x="916" y="980" as="targetPoint" />
          </mxGeometry>
        </mxCell>
        <mxCell id="vm-wcpPuKyVr0mwxiMD0-1828" style="edgeStyle=orthogonalEdgeStyle;rounded=0;orthogonalLoop=1;jettySize=auto;html=1;exitX=1;exitY=0.5;exitDx=0;exitDy=0;entryX=0;entryY=0.5;entryDx=0;entryDy=0;" edge="1" parent="1" target="vm-wcpPuKyVr0mwxiMD0-1790">
          <mxGeometry relative="1" as="geometry">
            <mxPoint x="880" y="980" as="sourcePoint" />
            <mxPoint x="916" y="1060" as="targetPoint" />
            <Array as="points">
              <mxPoint x="898" y="980" />
              <mxPoint x="898" y="1060" />
            </Array>
          </mxGeometry>
        </mxCell>
        <mxCell id="vm-wcpPuKyVr0mwxiMD0-1829" style="edgeStyle=orthogonalEdgeStyle;rounded=0;orthogonalLoop=1;jettySize=auto;html=1;exitX=1;exitY=0.5;exitDx=0;exitDy=0;entryX=0;entryY=0.5;entryDx=0;entryDy=0;" edge="1" parent="1" target="vm-wcpPuKyVr0mwxiMD0-1791">
          <mxGeometry relative="1" as="geometry">
            <mxPoint x="880" y="980" as="sourcePoint" />
            <mxPoint x="916" y="1140" as="targetPoint" />
            <Array as="points">
              <mxPoint x="898" y="980" />
              <mxPoint x="898" y="1140" />
            </Array>
          </mxGeometry>
        </mxCell>
        <mxCell id="vm-wcpPuKyVr0mwxiMD0-1837" style="edgeStyle=orthogonalEdgeStyle;rounded=0;orthogonalLoop=1;jettySize=auto;html=1;exitX=1;exitY=0.5;exitDx=0;exitDy=0;entryX=0;entryY=0.5;entryDx=0;entryDy=0;" edge="1" parent="1">
          <mxGeometry relative="1" as="geometry">
            <mxPoint x="722" y="1220" as="sourcePoint" />
            <mxPoint x="760" y="1220" as="targetPoint" />
          </mxGeometry>
        </mxCell>
        <mxCell id="vm-wcpPuKyVr0mwxiMD0-1838" style="edgeStyle=orthogonalEdgeStyle;rounded=0;orthogonalLoop=1;jettySize=auto;html=1;exitX=1;exitY=0.5;exitDx=0;exitDy=0;entryX=0;entryY=0.5;entryDx=0;entryDy=0;" edge="1" parent="1">
          <mxGeometry relative="1" as="geometry">
            <mxPoint x="722" y="1220" as="sourcePoint" />
            <mxPoint x="760" y="1300" as="targetPoint" />
            <Array as="points">
              <mxPoint x="740" y="1220" />
              <mxPoint x="740" y="1300" />
            </Array>
          </mxGeometry>
        </mxCell>
        <mxCell id="vm-wcpPuKyVr0mwxiMD0-1839" style="edgeStyle=orthogonalEdgeStyle;rounded=0;orthogonalLoop=1;jettySize=auto;html=1;exitX=1;exitY=0.5;exitDx=0;exitDy=0;entryX=0;entryY=0.5;entryDx=0;entryDy=0;" edge="1" parent="1">
          <mxGeometry relative="1" as="geometry">
            <mxPoint x="722" y="1220" as="sourcePoint" />
            <mxPoint x="760" y="1380" as="targetPoint" />
            <Array as="points">
              <mxPoint x="740" y="1220" />
              <mxPoint x="740" y="1380" />
            </Array>
          </mxGeometry>
        </mxCell>
        <mxCell id="vm-wcpPuKyVr0mwxiMD0-1840" style="edgeStyle=orthogonalEdgeStyle;rounded=0;orthogonalLoop=1;jettySize=auto;html=1;exitX=1;exitY=0.5;exitDx=0;exitDy=0;entryX=0;entryY=0.5;entryDx=0;entryDy=0;" edge="1" parent="1" source="vm-wcpPuKyVr0mwxiMD0-1797">
          <mxGeometry relative="1" as="geometry">
            <mxPoint x="720" y="1300" as="sourcePoint" />
            <mxPoint x="758" y="1460" as="targetPoint" />
            <Array as="points">
              <mxPoint x="720" y="1221" />
              <mxPoint x="720" y="1220" />
              <mxPoint x="740" y="1220" />
              <mxPoint x="740" y="1460" />
            </Array>
          </mxGeometry>
        </mxCell>
        <mxCell id="vm-wcpPuKyVr0mwxiMD0-1843" style="edgeStyle=orthogonalEdgeStyle;rounded=0;orthogonalLoop=1;jettySize=auto;html=1;exitX=1;exitY=0.5;exitDx=0;exitDy=0;entryX=1;entryY=0.5;entryDx=0;entryDy=0;endArrow=none;endFill=0;" edge="1" parent="1" source="vm-wcpPuKyVr0mwxiMD0-1788">
          <mxGeometry relative="1" as="geometry">
            <mxPoint x="620" y="180.03" as="targetPoint" />
            <mxPoint x="900" y="980.03" as="sourcePoint" />
            <Array as="points">
              <mxPoint x="890" y="900" />
              <mxPoint x="890" y="180" />
            </Array>
          </mxGeometry>
        </mxCell>
      </root>
    </mxGraphModel>
  </diagram>
</mxfile>
